# xmcd
#
# Track frame offsets: 
#        151
#        19303
#        40776
#        60266
#        80458
#        100139
#        117338
#        141160
#        159767
#        182233
#        205887
#        226316
#        246791
#        267075
#        292218
#        314601
#
# Disc length: 4470 seconds
#
# Revision: 4
# Processed by: cddbd v1.5PL3 Copyright (c) Steve Scherf et al.
# Submitted via: ExactAudioCopy v0.95a3
#
DISCID=dd117410
DTITLE=Joe Simon - Hangin' On
DYEAR=2001
DGENRE=Soul
TTITLE0=Don't Let Me Lose the Feeling
TTITLE1=Chokin' Kind
TTITLE2=Yourself (To All My Lovin')
TTITLE3=(You Keep Me) Hangin' On
TTITLE4=Farther On Down the Road
TTITLE5=Baby Don't Be Lookin' In My Mind
TTITLE6=In the Ghetto
TTITLE7=(Sittin' On) The Dock of the Bay
TTITLE8=I Got a Whole Lot of Lovin'
TTITLE9=Misty Blue
TTITLE10=Teenagers Prayer
TTITLE11=Message From Maria
TTITLE12=My Special Prayer
TTITLE13=Put Your Trust In Me
TTITLE14=Yours Love
TTITLE15=Lonely Man
EXTD=YEAR: 2001 ID3G:  42
EXTT0=
EXTT1=
EXTT2=
EXTT3=
EXTT4=
EXTT5=
EXTT6=
EXTT7=
EXTT8=
EXTT9=
EXTT10=
EXTT11=
EXTT12=
EXTT13=
EXTT14=
EXTT15=
PLAYORDER=
